<svg version="1.1" id="Layer_1" xmlns="http://www.w3.org/2000/svg" xmlns:xlink="http://www.w3.org/1999/xlink" x="0px" y="0px"
	 width="100%" viewBox="0 0 376 376" enable-background="new 0 0 376 376" xml:space="preserve">
<path fill="#000000" opacity="1.000000" stroke="none" 
	d="
M245.000000,377.000000 
	C163.333344,377.000000 82.166695,377.000000 1.000033,377.000000 
	C1.000022,251.666702 1.000022,126.333405 1.000011,1.000083 
	C126.333275,1.000055 251.666550,1.000055 376.999878,1.000028 
	C376.999908,126.333252 376.999908,251.666504 376.999939,376.999878 
	C333.166656,377.000000 289.333344,377.000000 245.000000,377.000000 
M234.609421,68.844856 
	C215.332504,60.848068 195.032318,59.249985 174.715591,61.408005 
	C139.436478,65.155319 110.604889,81.627678 88.398788,109.266960 
	C66.310806,136.759201 57.874706,168.543625 61.351177,203.275757 
	C64.435616,234.091187 77.913116,260.258331 100.248329,281.699097 
	C129.521317,309.799774 164.912827,320.781586 204.714981,316.518890 
	C234.284073,313.352142 259.695923,300.432648 280.596039,278.941376 
	C308.886383,249.850800 321.213135,214.681549 316.484924,174.902084 
	C310.463593,124.243126 282.464966,88.980118 234.609421,68.844856 
z"/>
<path fill="#19191A" opacity="1.000000" stroke="none" 
	d="
M234.966797,68.990067 
	C282.464966,88.980118 310.463593,124.243126 316.484924,174.902084 
	C321.213135,214.681549 308.886383,249.850800 280.596039,278.941376 
	C259.695923,300.432648 234.284073,313.352142 204.714981,316.518890 
	C164.912827,320.781586 129.521317,309.799774 100.248329,281.699097 
	C77.913116,260.258331 64.435616,234.091187 61.351177,203.275757 
	C57.874706,168.543625 66.310806,136.759201 88.398788,109.266960 
	C110.604889,81.627678 139.436478,65.155319 174.715591,61.408005 
	C195.032318,59.249985 215.332504,60.848068 234.966797,68.990067 
M199.078674,217.173828 
	C192.671127,217.173828 186.263580,217.173828 179.555283,217.173828 
	C179.555283,225.819366 179.555283,233.824493 179.555283,241.991272 
	C187.213135,241.991272 194.604767,241.991272 202.843704,242.073242 
	C217.526337,240.590317 229.671707,234.097260 238.706223,222.573257 
	C252.117813,205.466110 254.712372,186.373810 245.606918,166.690094 
	C236.509613,147.024048 220.380066,136.321243 198.594345,135.782669 
	C175.948227,135.222809 153.278152,135.627884 130.618561,135.637970 
	C129.664780,135.638397 128.711121,135.911148 127.649460,136.073563 
	C127.649460,149.385574 127.649460,162.470093 127.649460,175.740295 
	C136.184097,175.740295 144.402496,175.740295 153.229828,175.740295 
	C153.229828,170.674149 153.229828,165.943008 153.229828,161.073196 
	C169.647919,161.073196 185.462769,160.775024 201.256622,161.220627 
	C207.534714,161.397766 212.965164,164.603912 217.889496,170.064926 
	C215.906128,170.302063 215.096939,170.435852 214.282425,170.490479 
	C205.659729,171.068954 202.753220,174.104935 202.688721,182.684265 
	C202.654907,187.182648 202.945450,191.705673 202.541367,196.167938 
	C202.384262,197.903015 200.717941,199.501419 199.739090,201.162079 
	C198.610367,199.487640 196.618988,197.868378 196.507721,196.128845 
	C196.104355,189.822632 196.352417,183.475952 196.313782,177.144791 
	C196.287964,172.912354 194.371750,169.785400 190.532074,167.986023 
	C183.959763,164.906021 176.872131,169.530685 176.667969,177.240845 
	C176.447479,185.566101 176.745300,193.906815 176.429459,202.226074 
	C176.376694,203.616211 174.352386,204.931488 173.239090,206.281357 
	C172.257645,204.963394 170.672287,203.749207 170.424194,202.305252 
	C169.950790,199.549850 170.397980,196.651077 170.177246,193.834213 
	C169.793106,188.931870 167.094055,185.164291 162.256378,184.963882 
	C150.829865,184.490540 139.370407,184.811935 127.635353,184.811935 
	C127.635353,204.064087 127.635353,222.950439 127.635353,242.133179 
	C136.178329,242.133179 144.422073,242.133179 153.291595,242.133179 
	C153.291595,225.111313 153.291595,208.391281 153.291595,191.762955 
	C162.899307,190.588898 163.526581,191.112946 163.551910,199.735367 
	C163.554352,200.568436 163.537491,201.402084 163.562378,202.234482 
	C163.764191,208.989288 167.424026,213.120941 173.274612,213.209686 
	C179.351181,213.301834 183.204941,209.095001 183.282471,202.065292 
	C183.366989,194.401840 183.106735,186.727432 183.463989,179.079620 
	C183.545273,177.339691 185.547348,175.689499 186.665329,173.998001 
	C187.656021,175.652313 189.403702,177.263275 189.501389,178.968719 
	C189.853333,185.113663 189.555588,191.292374 189.680344,197.454727 
	C189.813690,204.041794 193.826569,208.191040 199.707703,208.085739 
	C205.359650,207.984543 209.184326,203.908005 209.351364,197.559402 
	C209.482788,192.564209 209.277145,187.558868 209.465698,182.567261 
	C209.523453,181.037918 209.930405,178.993515 210.966019,178.121994 
	C215.146469,174.603897 223.784637,177.875122 224.862671,183.168381 
	C228.219788,199.651886 217.974319,213.713867 199.078674,217.173828 
z"/>
<path fill="#2C62DE" opacity="1.000000" stroke="none" 
	d="
M200.012222,217.275879 
	C217.974319,213.713867 228.219788,199.651886 224.862671,183.168381 
	C223.784637,177.875122 215.146469,174.603897 210.966019,178.121994 
	C209.930405,178.993515 209.523453,181.037918 209.465698,182.567261 
	C209.277145,187.558868 209.482788,192.564209 209.351364,197.559402 
	C209.184326,203.908005 205.359650,207.984543 199.707703,208.085739 
	C193.826569,208.191040 189.813690,204.041794 189.680344,197.454727 
	C189.555588,191.292374 189.853333,185.113663 189.501389,178.968719 
	C189.403702,177.263275 187.656021,175.652313 186.665329,173.998001 
	C185.547348,175.689499 183.545273,177.339691 183.463989,179.079620 
	C183.106735,186.727432 183.366989,194.401840 183.282471,202.065292 
	C183.204941,209.095001 179.351181,213.301834 173.274612,213.209686 
	C167.424026,213.120941 163.764191,208.989288 163.562378,202.234482 
	C163.537491,201.402084 163.554352,200.568436 163.551910,199.735367 
	C163.526581,191.112946 162.899307,190.588898 153.291595,191.762955 
	C153.291595,208.391281 153.291595,225.111313 153.291595,242.133179 
	C144.422073,242.133179 136.178329,242.133179 127.635353,242.133179 
	C127.635353,222.950439 127.635353,204.064087 127.635353,184.811935 
	C139.370407,184.811935 150.829865,184.490540 162.256378,184.963882 
	C167.094055,185.164291 169.793106,188.931870 170.177246,193.834213 
	C170.397980,196.651077 169.950790,199.549850 170.424194,202.305252 
	C170.672287,203.749207 172.257645,204.963394 173.239090,206.281357 
	C174.352386,204.931488 176.376694,203.616211 176.429459,202.226074 
	C176.745300,193.906815 176.447479,185.566101 176.667969,177.240845 
	C176.872131,169.530685 183.959763,164.906021 190.532074,167.986023 
	C194.371750,169.785400 196.287964,172.912354 196.313782,177.144791 
	C196.352417,183.475952 196.104355,189.822632 196.507721,196.128845 
	C196.618988,197.868378 198.610367,199.487640 199.739105,201.162079 
	C200.717941,199.501419 202.384262,197.903015 202.541367,196.167938 
	C202.945450,191.705673 202.654907,187.182648 202.688721,182.684265 
	C202.753220,174.104935 205.659729,171.068954 214.282425,170.490479 
	C215.096939,170.435852 215.906128,170.302063 217.889496,170.064926 
	C212.965164,164.603912 207.534714,161.397766 201.256622,161.220627 
	C185.462769,160.775024 169.647919,161.073196 153.229828,161.073196 
	C153.229828,165.943008 153.229828,170.674149 153.229828,175.740295 
	C144.402496,175.740295 136.184097,175.740295 127.649460,175.740295 
	C127.649460,162.470093 127.649460,149.385574 127.649460,136.073563 
	C128.711121,135.911148 129.664780,135.638397 130.618561,135.637970 
	C153.278152,135.627884 175.948227,135.222809 198.594345,135.782669 
	C220.380066,136.321243 236.509613,147.024048 245.606918,166.690094 
	C254.712372,186.373810 252.117813,205.466110 238.706223,222.573257 
	C229.671707,234.097260 217.526337,240.590317 202.037659,241.880768 
	C196.293289,241.456421 191.356674,241.101456 186.416077,241.032974 
	C182.693893,240.981384 180.909836,239.387772 180.995010,235.631256 
	C181.062485,232.655823 180.967392,229.677094 180.985855,226.700089 
	C181.030243,219.538467 181.527496,219.227722 188.548309,218.911942 
	C192.386383,218.739288 196.191986,217.844818 200.012222,217.275879 
z"/>
<path fill="#2B60D7" opacity="1.000000" stroke="none" 
	d="
M199.545441,217.224854 
	C196.191986,217.844818 192.386383,218.739288 188.548309,218.911942 
	C181.527496,219.227722 181.030243,219.538467 180.985855,226.700089 
	C180.967392,229.677094 181.062485,232.655823 180.995010,235.631256 
	C180.909836,239.387772 182.693893,240.981384 186.416077,241.032974 
	C191.356674,241.101456 196.293289,241.456421 201.614014,241.839783 
	C194.604767,241.991272 187.213135,241.991272 179.555283,241.991272 
	C179.555283,233.824493 179.555283,225.819366 179.555283,217.173828 
	C186.263580,217.173828 192.671127,217.173828 199.545441,217.224854 
z"/>
</svg>